<?xml version="1.0" encoding="UTF-8"?>
<svg id="Layer_2" data-name="Layer 2" xmlns="http://www.w3.org/2000/svg" viewBox="0 0 538.48 413.7">
  <defs>
    <style>
      .cls-1 {
        fill: #e1eaef;
      }

      .cls-2 {
        fill: #25a0f4;
      }
    </style>
  </defs>
  <g id="Layer_1-2" data-name="Layer 1">
    <g>
      <path class="cls-1" d="m331.63,0h-15.04c-100.23,0-182.74,77.26-191.11,175.35h25.11c8.29-84.28,79.57-150.35,166-150.35h15.04c100.27,0,181.85,81.58,181.85,181.85s-81.58,181.85-181.85,181.85c-89.53,0-164.16-65.04-179.11-150.35h-25.34c15.21,99.16,101.1,175.35,204.45,175.35,114.06,0,206.85-92.79,206.85-206.85S445.69,0,331.63,0Z"/>
      <path class="cls-2" d="m303.01,359.26c-15.61,0-31.22-5.94-43.11-17.83-4.88-4.88-4.88-12.8,0-17.68,4.88-4.88,12.8-4.88,17.68,0,6.79,6.79,15.83,10.53,25.43,10.53s18.64-3.74,25.43-10.53l91.47-91.47c6.79-6.79,10.53-15.83,10.53-25.43s-3.74-18.64-10.53-25.43l-91.47-91.47c-6.79-6.79-15.83-10.53-25.43-10.53s-18.64,3.74-25.43,10.53c-4.88,4.88-12.8,4.88-17.68,0-4.88-4.88-4.88-12.8,0-17.68,23.77-23.77,62.45-23.77,86.22,0l91.47,91.47c11.52,11.52,17.86,26.83,17.86,43.11s-6.34,31.59-17.86,43.11l-91.47,91.47c-11.89,11.89-27.5,17.83-43.11,17.83Z"/>
      <path class="cls-2" d="m404.99,219.6l-89.22,89.22c-3.52,3.52-8.14,5.29-12.76,5.29s-9.23-1.77-12.75-5.29c0,0-34.08-34.08-60.17-60.18-18.75-18.76-44.19-29.29-70.71-29.29H12.5C5.52,219.35-.13,213.62,0,206.61c.13-6.88,6.03-12.26,12.91-12.26h146.47c26.52,0,51.96-10.54,70.71-29.3,26.09-26.09,60.17-60.18,60.17-60.18,3.52-3.52,8.14-5.28,12.75-5.28s9.24,1.76,12.76,5.28l89.22,89.22c7.05,7.05,7.05,18.47,0,25.51Z"/>
    </g>
  </g>
</svg>