<svg width="115" height="100" viewBox="0 0 115 100" fill="none" xmlns="http://www.w3.org/2000/svg">
<path d="M106.832 42.2115C105.781 43.87 104.594 45.4096 103.102 46.7099C101.067 48.4818 98.7522 49.7575 96.2508 50.7262C94.0749 51.5688 91.816 52.0377 89.5009 52.2752C89.0309 52.3233 88.598 52.2223 88.1965 51.9922C85.5613 50.4748 82.9335 48.9458 80.296 47.4333C75.9632 44.9476 71.6231 42.4745 67.2901 39.9877C65.0298 38.6904 62.7791 37.3755 60.5229 36.0718C59.1913 35.3021 57.8536 34.5405 56.5209 33.7711C56.1063 33.5317 55.7154 33.6429 55.3323 33.8381C52.5585 35.2541 49.7869 36.6752 46.9625 37.9897C43.3483 39.6718 39.6752 40.0469 35.9115 38.5191C34.1357 37.7988 32.7092 36.6158 31.57 35.097C30.5743 33.7709 30.9517 31.9927 32.3784 31.1556C34.1734 30.102 36.011 29.1172 37.7803 28.0212C41.3514 25.8091 44.8872 23.5412 48.438 21.2967C49.9141 20.3634 51.5306 19.796 53.2444 19.5124C54.2225 19.3502 55.194 19.563 56.1601 19.7036C61.6241 20.5048 67.0879 21.305 72.5503 22.1198C73.3312 22.2366 74.0196 22.1441 74.7369 21.7597C78.1687 19.9209 81.6271 18.1342 85.0742 16.3254C86.1908 15.739 86.2636 15.7624 87.1951 16.6108C90.6826 19.7873 93.5312 23.5171 96.3839 27.2404C98.0348 29.396 99.6525 31.5787 101.23 33.7877C102.872 36.0854 104.446 38.4307 106.052 40.7539C106.267 41.0669 106.496 41.3706 106.718 41.6788L106.832 42.2104L106.832 42.2115Z" fill="#5CC5FF"/>
<path d="M15.311 17.6155C16.8999 17.9033 18.5143 17.9611 20.1147 18.1464C22.4882 18.4223 24.8678 18.6435 27.2462 18.885C31.264 19.2913 35.282 19.693 39.3002 20.1014C40.3093 20.2039 41.3156 20.3193 42.3234 20.4365C42.458 20.4522 42.6212 20.4152 42.7496 20.6312C42.0244 21.0929 41.3029 21.5615 40.5712 22.0135C39.4309 22.7183 38.2765 23.3983 37.1445 24.1158C36.7499 24.3657 36.3545 24.4301 35.9065 24.3835C30.3234 23.8 24.7392 23.2224 19.1551 22.6447C18.4889 22.5757 17.8184 22.5388 17.1544 22.4538C16.6708 22.3914 16.3236 22.5411 16.0258 22.927C13.8335 25.7753 12.0687 28.8503 10.976 32.2931C9.71395 36.2702 9.33973 40.3234 9.81264 44.4703C9.99468 46.0623 10.3885 47.6047 10.7354 49.1571C11.1162 50.8624 12.3352 51.9951 13.5942 53.0804C13.7318 53.1989 13.8603 53.3271 14.0048 53.4363C14.2316 53.608 14.2688 53.7979 14.1264 54.0474C13.4985 55.1475 12.8746 56.2501 12.2558 57.3561C12.1045 57.6263 11.9387 57.6673 11.6973 57.4687C10.1974 56.2392 8.71216 54.9998 7.64493 53.3389C7.11067 52.508 6.66816 51.6486 6.44815 50.6805C6.41265 50.5247 6.32741 50.3806 6.26556 50.2315C5.94026 48.7078 5.61473 47.1831 5.28944 45.6595C5.29037 45.5336 5.30747 45.4055 5.28904 45.2827C5.0519 43.6512 4.9665 42.0119 4.99295 40.3653C5.06426 35.9088 6.05303 31.6565 7.88194 27.6007C9.02971 25.0566 10.3694 22.625 12.1368 20.4422C12.8766 19.5282 13.7283 18.7161 14.4606 17.7982L15.3112 17.6166L15.311 17.6155Z" fill="#4481EB"/>
<path d="M41.7551 71.8264C42.4417 71.7721 43.0139 71.5988 43.6097 71.5672C45.7513 71.4546 47.3715 72.3572 48.5017 74.1204C49.612 75.8533 49.5749 77.6322 48.5257 79.4037C47.4105 81.2883 46.3375 83.1983 45.2032 85.0714C43.7149 87.5303 40.3998 88.1869 38.0837 86.5814C35.0472 84.4759 32.0882 82.275 29.2141 79.9514C25.1576 76.6718 21.2595 73.2072 17.2644 69.8556C16.4206 69.1475 15.5491 68.4609 14.8155 67.6281C13.8563 66.541 13.1897 65.3193 13.1202 63.8377C13.0852 63.0959 13.2828 62.3967 13.6644 61.7627C14.5996 60.2122 15.531 58.6593 16.4995 57.1296C18.2555 54.3567 22.0099 54.0965 24.4184 56.0259C24.888 56.4026 25.308 56.8287 25.6156 57.3478C25.8362 57.7199 26.0682 57.7804 26.4548 57.5555C27.6479 56.8639 28.9117 56.394 30.3275 56.5219C32.6503 56.732 35.5004 58.8961 35.0563 62.4662C35.0181 62.7712 34.98 63.0773 34.9257 63.3801C34.8607 63.7475 34.9663 63.8773 35.3585 63.788C35.9043 63.6626 36.4516 63.5546 37.0166 63.5141C40.3592 63.2729 44.2824 67.3291 41.9304 71.4966C41.8868 71.5738 41.8461 71.6536 41.7553 71.822L41.7551 71.8264Z" fill="#5CC5FF"/>
<path d="M72.867 85.6075C71.1518 86.0404 69.6139 85.8462 68.1086 85.3772C67.5286 85.1964 67.2209 85.3643 66.8996 85.8276C64.2209 89.6835 59.0465 91.0617 54.8899 88.8908C53.003 87.9051 51.2777 86.6092 49.4767 85.4584C49.2462 85.3109 49.2052 85.1395 49.34 84.9117C50.0019 83.7888 50.6665 82.6686 51.3222 81.5425C51.4792 81.2733 51.6291 81.3191 51.8436 81.4801C53.3944 82.6465 55.0414 83.6745 56.6969 84.6751C59.2014 86.1893 62.667 84.9102 63.7661 82.1642C63.9163 81.7897 63.7941 81.6235 63.4864 81.4268C60.3161 79.3977 57.1555 77.3566 53.9938 75.3156C53.3863 74.9228 52.7612 74.5515 52.1894 74.1122C51.0436 73.234 51.2092 71.6144 52.4967 70.9849C53.2093 70.636 53.873 70.8445 54.4973 71.2482C56.8389 72.7649 59.1805 74.2816 61.5213 75.7997C64.0135 77.4177 66.4971 79.0475 68.9984 80.6513C70.3974 81.5489 71.8611 81.3698 73.2447 80.6642C74.7705 79.8859 75.7424 78.6112 76.1322 76.917C76.2487 76.4108 76.1201 76.0792 75.6585 75.7864C72.7559 73.9436 69.8678 72.08 66.9827 70.2101C64.1428 68.3695 61.3128 66.5124 58.4754 64.6679C57.5189 64.0461 56.5492 63.446 55.591 62.8268C55.3187 62.6504 55.052 62.4583 54.8074 62.2448C54.0504 61.5837 53.935 60.6267 54.4967 59.8053C55.0195 59.0411 56.0615 58.8031 56.9093 59.2591C57.0839 59.353 57.2468 59.4705 57.4143 59.5782C64.3624 64.0814 71.313 68.5808 78.2533 73.0946C78.8574 73.487 79.4142 73.5538 80.0899 73.2872C82.1743 72.4642 83.6173 70.433 83.6458 68.2079C83.6511 67.8054 83.4902 67.5363 83.1485 67.3157C79.3905 64.8874 75.64 62.4474 71.8851 60.0128C68.1622 57.5981 64.4374 55.1849 60.7127 52.7717C60.2869 52.4957 59.8513 52.2363 59.4289 51.9552C58.4553 51.3059 58.1391 50.1216 58.7006 49.268C59.2922 48.3679 60.4145 48.1728 61.4402 48.832C64.273 50.6553 67.0944 52.4976 69.9235 54.3294C74.2271 57.1159 78.5322 59.8989 82.8367 62.6841C83.5061 63.1171 84.1814 63.541 84.8343 63.9953C85.3055 64.3227 85.7509 64.321 86.2598 64.08C88.8942 62.8339 90.0054 59.3215 88.5713 56.7283C88.5097 56.6169 88.453 56.5023 88.3781 56.4016C88.0897 56.014 88.2902 55.9223 88.6626 55.8806C89.8491 55.7462 91.0336 55.5978 92.2182 55.4494C92.9761 55.3543 93.047 55.3692 93.2905 56.0876C94.1929 58.7521 93.8927 61.3398 92.6995 63.838C91.862 65.591 90.4897 66.8701 88.8515 67.8669C88.3467 68.1737 88.2276 68.626 88.1776 69.147C88.0149 70.8582 87.4524 72.4313 86.4882 73.8512C85.2685 75.6469 83.6047 76.8937 81.5761 77.6292C80.8806 77.8811 80.5216 78.2723 80.2808 78.9874C79.2777 81.9698 77.3349 84.0966 74.3314 85.1815C74.0588 85.2797 73.7897 85.3883 73.512 85.4676C73.2511 85.5422 72.9812 85.5853 72.8696 85.6092L72.867 85.6075Z" fill="#4481EB"/>
</svg>
