<svg xmlns="http://www.w3.org/2000/svg" fill="none" viewBox="-0.5 -0.5 14 14"><g id="phone--android-phone-mobile-device-smartphone-iphone"><path id="Vector" stroke="#25a0f4" stroke-linecap="round" stroke-linejoin="round" d="M4.872975714285714 12.054435714285715c-0.5706442857142857 0.3680857142857143 -1.2506464285714287 0.5285428571428572 -1.9256714285714285 0.45435000000000003 -0.6750157142857144 -0.07428571428571429 -1.3038907142857143 -0.3786714285714286 -1.7808607142857145 -0.8620857142857143l-0.41698892857142855 -0.4077357142857143C0.566644 11.051950000000001 0.4642857142857143 10.800864285714287 0.4642857142857143 10.539378571428571c0 -0.2614857142857143 0.10235828571428572 -0.5126642857142858 0.2851689285714286 -0.6995857142857143L2.5193257142857144 8.088423571428573c0.18542642857142858 -0.18222285714285716 0.43499857142857146 -0.2843285714285715 0.69498 -0.2843285714285715 0.2599721428571429 0 0.5095535714285714 0.10210571428571429 0.6949707142857143 0.2843285714285715 0.18698642857142858 0.18281714285714287 0.43810928571428576 0.2851735714285714 0.6996135714285715 0.2851735714285714 0.2615042857142857 0 0.5126178571428572 -0.10235642857142857 0.6996042857142857 -0.2851735714285714l2.7799014285714283 -2.7799014285714283c0.09273642857142858 -0.09139 0.16638142857142857 -0.20030214285714287 0.216645 -0.32040357142857145 0.05026357142857143 -0.12010142857142858 0.07615214285714286 -0.2490057142857143 0.07615214285714286 -0.37920071428571434 0 -0.13020428571428572 -0.025888571428571427 -0.2590992857142857 -0.07615214285714286 -0.37921000000000005 -0.05026357142857143 -0.12010142857142858 -0.12390857142857144 -0.22901357142857143 -0.216645 -0.32040357142857145 -0.18222285714285716 -0.18541714285714286 -0.2843285714285715 -0.43499857142857146 -0.2843285714285715 -0.6949707142857143 0 -0.2599814285714286 0.10210571428571429 -0.5095535714285714 0.2843285714285715 -0.69498L9.848985714285714 0.758749642857143c0.18701428571428572 -0.18281157142857143 0.4381 -0.2851689285714286 0.6995857142857143 -0.2851689285714286 0.26157857142857144 0 0.5126642857142858 0.10235735714285714 0.6996785714285714 0.2851689285714286l0.4077357142857143 0.41698892857142855c0.48332142857142857 0.47697 0.7877071428571429 1.105845 0.8619928571428572 1.7808607142857145 0.07428571428571429 0.675025 -0.08617142857142857 1.355027142857143 -0.45435000000000003 1.9256714285714285 -1.9181500000000002 2.826915 -4.358797857142857 5.261257857142857 -7.190652857142857 7.172165Z" stroke-width="1"></path></g></svg>